<?xml version="1.0" encoding="UTF-8"?>
<svg enable-background="new 0 0 138.022 137.16" viewBox="0 0 138.022 137.16" xmlns="http://www.w3.org/2000/svg">
 <defs>
  <linearGradient id="a" x1="-1292.1" x2="-1290" gradientTransform="matrix(2.1657 10.426 10.426 -2.1657 -5508.1 -6816.1)" gradientUnits="userSpaceOnUse">
   <stop stop-color="#f4f4f4" offset="0"/>
   <stop stop-color="#cdcdcd" offset="1"/>
  </linearGradient>
 </defs>
 <path d="m137.88 131.41c0 7.718-13.723 5.431-18.417 5.431h-110.6c-6.382 0-8.62-3.204-8.62-9.287v-111.25c0-4.785-1.999-16.311 5.582-16.311h126.06c7.631 0 5.994 9.216 5.994 14.268v79.586c1e-3 12.519 1e-3 25.041 1e-3 37.559" fill="#4165a5"/>
 <path d="m135.12 129.24c0 7.633-14.27 5.256-18.844 5.256h-107.19c-7.888 0-6.119-9.401-6.119-14.71v-79.277c0-4.74-2.331-18.21 5.395-18.21h120.63c7.362 0 6.121 7.554 6.121 12.605v94.336" fill="#fff"/>
 <path d="m130.37 124.1c0 7.438-14.891 4.966-19.271 4.966h-81.525c-4.44 0-16.747 2.276-20.418-1.456-4.111-4.179-1.433-18.57-1.433-23.587v-71.05c0-7.41 10.96-5.382 15.717-5.382h91.211c3.491 0 11.444-1.431 14.287 1.452 2.979 3.017 1.433 11.547 1.433 15.206v32.274c-1e-3 15.86-1e-3 31.718-1e-3 47.577" fill="#f4f4f4"/>
 <path d="m40.998,102.074c0-2.262-.16-22.261.158-22.261h13.037c2.054,0 11.686-1.42 13.197,0s-.915,22.261-.158,22.261h-26.234m31.336,0c0-2.262-.16-22.261.157-22.261h13.039c2.052,0 11.684-1.42 13.194,0s-.915,22.261-.157,22.261h-26.233m-31.336-27.205c0-2.265-.16-22.28.158-22.28h13.037c2.054,0 11.686-1.422 13.197,0s-.917,22.28-.158,22.28h-26.234m31.336,0c0-2.265-.16-22.28.157-22.28h13.039c2.052,0 11.684-1.422 13.194,0s-.915,22.28-.157,22.28h-26.233m31.336-44.716c-6.615,0-4.945,1.433-4.945,7.871 0,5.286 2.279,9.62-3.47,9.62h-19.451c-5.749,0-3.47-4.334-3.47-9.62v-7.648c0-.212-4.541-.621-4.945-.223-1.782,1.752 0,13.889 0,16.641 0,2.129-26.391.446-26.391.627v-16.418c0-1.715-3.026-.85-4.431-.85-1.115,0-.514,5.169-.514,6.156 0,2.561 1.641,11.335-1.439,11.335h-19.776c-3.511,0-3.833,4.944-1.022,4.944h19.776c4.385,0 2.461,4.675 2.461,8.523 0,1.719.792,13.757-.663,13.757h-17.899c-.637,0-4.656-.505-5.115,0-.583.642-.44,4.944.663,4.944h17.899c6.402,0 5.115.41 5.115,6.838 0,2.338 1.623,13.832 0,15.423-1.849,1.815-14.339,0-17.007,0h-6.498c-.114,0-.543,4.538-.172,4.946 1.574,1.734 14.556,0 17.005,0 5.873,0 6.672-1.393 6.672,4.532v9.89c0,3.39-.284,3.067 3.205,3.067 3.56,0 1.74-9.891 1.74-12.957 0-6.341 1.721-4.532 7.93-4.532h17.847c1.332,0 .614,12.596.614,14.422 0,4.027 4.945,4.764 4.945,1.25 0-1.471-.166-15.672.157-15.672h16.597c4.709,0 9.637-2.2 9.637,3.068 0,1.708-.572,14.421.514,14.421 1.403,0 4.432.863 4.432-.85v-10.482c0-6.09-1.021-6.157 4.984-6.157h17.922c.105,0 .539-4.544.169-4.946-.459-.494-4.355,0-4.985,0h-17.924c-.35,0-.166-12.626-.166-13.746 0-5.356-2.033-8.515 3.605-8.515h18.068c2.178,0 1.401-1.064 1.401-3.205 0-2.601-1.137-1.739-3.606-1.739h-18.068c-3.023,0-1.4-9.492-1.4-12.019 0-2.422-1.574-10.262 1.4-10.262h19.273c3.466,0 3.105-4.944 1.755-4.944h-15.928c-4.436,0-6.501,1.544-6.501-3.068v-14.422" fill="url(#a)"/>
</svg>
